<svg xmlns="http://www.w3.org/2000/svg" width="300" height="300" viewBox="0 0 300 300">
  <g fill="none" fill-rule="evenodd">
    <circle cx="150" cy="150" r="150" fill="#EB6F93"/>
    <g fill="#FFF" fill-rule="nonzero" transform="translate(63 71)">
      <g transform="translate(0 115)">
        <path d="M30.2613686,0 L21.7942605,0 C21.7942605,6.81764706 18.6048565,13.0392157 13.0613687,17.1372549 L9.72008829,19.5960784 L22.7055188,36.9568629 L33.3748343,36.9568629 L21.4145695,20.9745098 C27.0719647,15.4607843 30.2613686,8.00980393 30.2613686,0 Z"/>
        <rect width="8.657" height="36.957"/>
        <rect width="8.163" height="36.957" x="35.881"/>
        <path d="M115.653863 10.6921569C112.540397 10.6921569 109.578808 11.6235294 107.604415 14.2686275L107.604415 11.4 99.8587197 11.4 99.8587197 36.9568629 107.718322 36.9568629 107.718322 23.545098C107.718322 19.6705882 110.376159 17.7705882 113.565563 17.7705882 116.982781 17.7705882 118.957174 19.7823529 118.957174 23.5078431L118.957174 36.9941178 126.740839 36.9941178 126.740839 20.7137255C126.740839 14.7529412 121.918764 10.6921569 115.653863 10.6921569zM68.7240617 11.4L68.7240617 13.0392157C66.5218544 11.5490196 63.8640175 10.6921569 60.9783664 10.6921569 53.3845474 10.6921569 47.233554 16.727451 47.233554 24.1784314 47.233554 31.6294117 53.3845474 37.6647058 60.9783664 37.6647058 63.8640175 37.6647058 66.5218544 36.8078432 68.7240617 35.3176469L68.7240617 36.9568629 76.5077263 36.9568629 76.5077263 11.4 68.7240617 11.4zM61.6238412 30.7352942C57.7130244 30.7352942 54.5615894 27.7921569 54.5615894 24.1784314 54.5615894 20.5647059 57.7130244 17.6215686 61.6238412 17.6215686 65.5346577 17.6215686 68.6860927 20.5647059 68.6860927 24.1784314 68.6860927 27.7921569 65.5346577 30.7352942 61.6238412 30.7352942zM88.5818985 14.7156863L88.5818985 11.4 80.6083887 11.4 80.6083887 36.9568629 88.6198675 36.9568629 88.6198675 25.0352941C88.6198675 21.0117647 93.0622518 18.8509804 96.1377482 18.8509804 96.1757175 18.8509804 96.2136865 18.8509804 96.2136865 18.8509804L96.2136865 11.4C93.0622518 11.4 90.1386314 12.7411765 88.5818985 14.7156863zM150.965122 11.4L150.965122 13.0392157C148.762914 11.5490196 146.105077 10.6921569 143.219426 10.6921569 135.625607 10.6921569 129.474614 16.727451 129.474614 24.1784314 129.474614 31.6294117 135.625607 37.6647058 143.219426 37.6647058 146.105077 37.6647058 148.762914 36.8078432 150.965122 35.3176469L150.965122 36.9568629 158.748786 36.9568629 158.748786 11.4 150.965122 11.4zM143.864901 30.7352942C139.954084 30.7352942 136.802649 27.7921569 136.802649 24.1784314 136.802649 20.5647059 139.954084 17.6215686 143.864901 17.6215686 147.775718 17.6215686 150.927152 20.5647059 150.927152 24.1784314 150.965122 27.7921569 147.775718 30.7352942 143.864901 30.7352942zM167.064018 27.9039216C164.368212 27.9039216 162.166004 30.0647058 162.166004 32.709804 162.166004 35.3549018 164.368212 37.5156862 167.064018 37.5156862 169.759823 37.5156862 171.962031 35.3549018 171.962031 32.709804 171.962031 30.0274509 169.759823 27.9039216 167.064018 27.9039216z"/>
      </g>
      <g transform="translate(48)">
        <path d="M26.0763427 73.0165878C28.1016911 74.9701725 28.144974 78.1572764 26.1733953 80.1629843L25.7776092 80.5701691C23.8044909 82.5491334 20.5414299 82.5976729 18.4891438 80.6603569L7.01539626 69.5114702C3.85664666 66.4011941 3.40298059 62.5685014 5.41327626 60.5434629L5.81613439 60.1291192C7.47292578 58.4568687 10.1736383 58.2804359 12.0577484 59.7344176 12.9534999 60.4256757 14.2515064 60.2744799 14.9569271 59.3967123 15.6623478 58.518945 15.5080543 57.2469982 14.6123029 56.5557404 11.0664311 53.8193646 5.98372357 54.1514089 2.83990896 57.3248095L2.43853227 57.7376597C-1.28530489 61.488643-.53696614 67.8108102 4.09850363 72.3750523L15.6032704 83.5538444C19.3110426 87.0541987 25.1723541 86.9670087 28.7493061 83.3790355L29.1552113 82.9616286C32.6885887 79.3671331 32.6108414 73.6422607 28.9727855 70.1331113 28.1602217 69.3493388 26.8531177 69.3594539 26.0532871 70.155704 25.2534564 70.9519541 25.2637788 72.2328155 26.0763427 73.0165878zM19.2091271 12.5756241L23.9050201 50.44899C24.0425395 51.5581131 25.0715642 52.3479915 26.2034112 52.213233 27.3352581 52.0784745 28.1413198 51.0701095 28.0038004 49.9609867L23.2933389 11.9701222 23.2467706 11.723471C22.4432199 8.5737994 24.4407591 5.04200756 27.1021057 4.48600541 28.5939365 4.17389583 30.1505761 4.46156578 31.4234336 5.28436608 32.6962908 6.10716639 33.5788182 7.39622237 33.8730546 8.86238399L42.0494307 43.1245283C42.309096 44.2124469 43.4195985 44.8881054 44.5298069 44.6336532 45.6400152 44.379201 46.3295167 43.2909942 46.0698513 42.2030753L37.9089283 8.01129737C37.4166109 5.5514731 35.8936123 3.32691826 33.6970115 1.90699201 31.500411.487065766 28.8140807-.0093731645 26.2405952.529032153 21.2354336 1.57469849 17.946824 7.32567109 19.2091271 12.5756241z"/>
        <path d="M62.3669261 57.0799742L71.6521568 11.6808913C72.731252 6.79398623 69.76773 1.88754952 64.8465566.454305732 59.336702-.911724207 53.8154634 2.27085765 52.3771046 7.57232095L42.0971059 42.1164762C41.7779275 43.1890845 42.4065178 44.3121554 43.5011019 44.6249261 44.5956857 44.9376965 45.7417667 44.3217263 46.0609451 43.249118L56.3541761 8.65843604C57.2249699 5.45113162 60.5167794 3.55364916 63.7526703 4.35485692 66.521921 5.16318253 68.239184 8.00630034 67.6101627 10.8556016L58.3185098 56.284887C58.0944544 57.3803816 58.8190903 58.4464415 59.9370295 58.665999 61.0549688 58.8855563 62.1428704 58.1754688 62.3669261 57.0799742zM38.9808718 100.818317C24.2619724 100.818317 11.9684103 90.2301704 11.9684103 75.1839817 11.9684103 74.0667022 11.0441194 73.1609681 9.90394872 73.1609681 8.76377808 73.1609681 7.83948718 74.0667022 7.83948718 75.1839817 7.83948718 92.5892601 22.0916988 104.864345 38.9808718 104.864345 40.1210425 104.864345 41.0453333 103.95861 41.0453333 102.841331 41.0453333 101.724051 40.1210425 100.818317 38.9808718 100.818317zM31.6996222 65.430117C31.3784671 66.5638909 30.6599681 67.5505522 29.6702886 68.2168496L29.2289454 68.5049339C26.8541803 70.0702561 23.6446522 69.4630957 22.039949 67.1509627L13.013568 53.9780654C10.550966 50.3134883 10.8729658 46.4579089 13.24332 44.8635852L13.6854136 44.5749959C16.7259192 42.847969 19.3092531 44.1582599 21.9649417 47.9496444L29.5129295 58.9686496C30.1483873 59.8963128 31.4309547 60.1435343 32.3776237 59.5208343 33.324293 58.8981346 33.5765795 57.6413175 32.9411217 56.7136546L25.3811218 45.6773083C21.6474385 40.3467363 17.0211372 38.0002338 11.5029671 41.1426371L10.9298684 41.5124247C6.49273998 44.4966568 5.96275459 50.8426249 9.57546288 56.2184481L18.6189448 69.4163843C21.5082614 73.5795127 27.2734138 74.6701318 31.5263598 71.8667728L31.9844907 71.5675052C33.7980643 70.3467637 35.0973613 68.5625358 35.6781216 66.5122771 35.9830743 65.4357017 35.3396699 64.3207155 34.2410376 64.0218854 33.1424054 63.723055 32.0045749 64.3535419 31.6996222 65.430117z"/>
        <path d="M45.3699755,72.1311924 C41.0802795,74.4795987 38.4131146,78.9014751 38.081913,85.5904129 C38.0266561,86.7063798 38.9050665,87.6549446 40.0438972,87.7090921 C41.1827282,87.7632395 42.1507276,86.9024651 42.2059843,85.7864985 C42.505926,79.7288876 44.9079426,76.4587033 48.7929647,75.0256476 C50.8720727,74.2587335 53.1327574,74.1057054 55.1242858,74.3133997 C55.3919683,74.341316 55.5698006,74.3672901 55.6416973,74.3804209 C58.3000113,74.8659179 59.1091498,70.9951562 56.4701374,70.4173253 L40.5941372,66.9411612 C33.1632768,64.9470387 32.0418043,62.251703 33.4176519,57.7576206 C34.0117461,55.7994455 35.2320937,54.7943514 37.0727045,54.393319 C38.2879364,54.1285443 39.6530766,54.1614674 40.9505516,54.3842719 C41.3256519,54.4486845 41.5894518,54.5099041 41.7061874,54.5427695 L65.8050982,60.0581397 C65.9646907,60.0882491 66.0771429,60.1188087 66.2739717,60.2062099 C66.672587,60.383215 67.0875875,60.6675984 67.4923952,61.091464 C69.1078553,62.7829776 69.9991951,65.9737993 69.5480243,71.2148462 C67.9761952,89.5880823 59.2399852,100.996773 38.5337893,100.818396 C37.3936628,100.808574 36.4612823,101.706311 36.4512593,102.823547 C36.4412363,103.940783 37.3573662,104.854445 38.4974927,104.864266 C61.7685297,105.064739 71.9309211,91.7935862 73.6624246,71.5538963 C74.2047688,65.2537372 72.9984984,60.935527 70.5070581,58.326793 C69.1333212,56.8883826 67.6836439,56.2446549 66.5715686,56.0861459 L42.7455686,50.6283659 C42.5958093,50.5835267 42.191304,50.4896538 41.6632432,50.3989743 C39.8772393,50.0922787 37.9976952,50.0469498 36.176547,50.4437417 C32.9446974,51.1478973 30.5060991,53.1563587 29.461395,56.5998132 C27.4751308,63.0877453 29.5962319,68.1855791 39.5992568,70.8668189 L45.3699755,72.1311924 Z"/>
      </g>
    </g>
  </g>
</svg>
